#!OML:ASF E:\emotionWalksFemale\Project 1\Capture day 1\Session 1\Female1.ASF
:FULLY-SPECIFIED
:DEGREES
79
root 8.78523 15.5995 21.5932 -172.9 3.11459 -179.043
lowerback 14.95 1.31677 1.71103
upperback -0.62625 2.12265 0.0280903
thorax -9.02413 0.967232 -1.41855
lowerneck -6.43298 -2.76893 -7.88593
upperneck -3.81031 -3.38466 7.77794
head 0.204648 -1.68892 3.8679
rclavicle 2.13197e-014 -1.03368e-014
rhumerus -46.5244 27.3202 -36.9876
rradius 33.5639
rwrist 28.7256
rhand 0.510282 -55.4859
rfingers 7.12502
rthumb 26.079 -83.7155
lclavicle 2.13197e-014 -1.03368e-014
lhumerus -43.1302 -10.3471 19.182
lradius 36.5368
lwrist -5.17899
lhand 8.03766 -33.4834
lfingers 7.12502
lthumb 33.2628 -6.53905
rfemur -9.85959 16.4715 24.2495
rtibia 16.0296
rfoot -15.4345 -26.8093
rtoes -4.33284
lfemur -15.5227 -15.0004 -18.9247
ltibia 24.0086
lfoot -21.5174 15.2998
ltoes -20.1625
80
root 8.79157 15.6 21.5983 -172.679 2.84612 -179.043
lowerback 15.3112 1.2209 1.70749
upperback -0.594388 2.00422 0.00400445
thorax -9.19833 0.90914 -1.42702
lowerneck -6.37562 -2.70153 -7.64237
upperneck -4.21319 -3.32319 7.74615
head 0.0527207 -1.673 3.81431
rclavicle -4.41799e-014 2.98177e-016
rhumerus -47.4103 28.6012 -36.315
rradius 33.781
rwrist 28.1824
rhand 0.473427 -55.7126
rfingers 7.12502
rthumb 26.0438 -83.9474
lclavicle -4.41799e-014 2.98177e-016
lhumerus -43.5187 -10.9544 17.5454
lradius 36.6907
lwrist -5.28235
lhand 7.89885 -33.5508
lfingers 7.12502
lthumb 33.1308 -6.57826
rfemur -10.1952 16.2661 24.2307
rtibia 16.1781
rfoot -15.3974 -26.734
rtoes -4.37617
lfemur -15.9631 -14.7289 -18.8264
ltibia 24.2218
lfoot -21.5393 14.8109
ltoes -20.363
81
root 8.79907 15.6002 21.6027 -172.463 2.59549 -178.989
lowerback 15.2156 1.09643 1.67465
upperback -0.27206 1.84745 0.0462648
thorax -8.79975 0.851566 -1.31995
lowerneck -6.37731 -2.59013 -7.3621
upperneck -4.87303 -3.21222 7.59502
head -0.179111 -1.64112 3.71527
rclavicle 1.91082e-014 2.18663e-015
rhumerus -47.7795 29.4905 -35.3805
rradius 33.8234
rwrist 27.8602
rhand 0.331351 -55.5866
rfingers 7.12502
rthumb 25.9077 -83.8413
lclavicle 1.91082e-014 2.18663e-015
lhumerus -43.8639 -11.1569 15.9269
lradius 36.6353
lwrist -5.39742
lhand 7.97717 -33.9358
lfingers 7.12502
lthumb 33.2053 -6.97913
rfemur -10.4881 16.1437 24.2762
rtibia 16.2823
rfoot -15.2817 -26.6375
rtoes -3.78938
lfemur -16.3948 -14.3968 -18.6819
ltibia 24.4515
lfoot -21.4199 14.4961
ltoes -22.0276
82
root 8.80792 15.6011 21.6075 -172.259 2.36772 -178.911
lowerback 15.3733 1.02628 1.69826
upperback -0.0598519 1.78222 0.133784
thorax -8.66239 0.8309 -1.22649
lowerneck -6.43434 -2.59662 -7.48886
upperneck -5.31989 -3.22531 7.6613
head -0.309837 -1.65949 3.76707
rclavicle 4.94477e-015 -2.38542e-015
rhumerus -48.3606 30.2072 -34.2534
rradius 33.9391
rwrist 27.5506
rhand 0.337945 -55.2371
rfingers 7.12502
rthumb 25.914 -83.491
lclavicle 4.94477e-015 -2.38542e-015
lhumerus -44.1697 -11.4642 14.4754
lradius 36.4889
lwrist -5.48355
lhand 8.53092 -34.0403
lfingers 7.12502
lthumb 33.7317 -7.19739
rfemur -10.7518 16.1461 24.3558
rtibia 16.3682
rfoot -15.318 -26.7382
rtoes -3.13334
lfemur -16.8323 -14.1012 -18.4993
ltibia 24.7026
lfoot -21.3411 14.079
ltoes -22.6769
83
root 8.81575 15.6022 21.6124 -172.059 2.14678 -178.946
lowerback 15.6093 0.999367 1.66459
upperback 0.0969425 1.75766 0.147304
thorax -8.62735 0.827674 -1.19195
lowerneck -6.47871 -2.65351 -7.57232
upperneck -5.58391 -3.30284 7.83447
head -0.376592 -1.70649 3.84488
rclavicle 1.31695e-014 2.98177e-015
rhumerus -49.3229 30.9008 -33.2565
rradius 34.2547
rwrist 27.1721
rhand 1.18354 -55.073
rfingers 7.12502
rthumb 26.7235 -83.2059
lclavicle 1.31695e-014 2.98177e-015
lhumerus -44.2332 -11.7829 13.0078
lradius 36.2059
lwrist -5.62795
lhand 8.6642 -34.1808
lfingers 7.12502
lthumb 33.8583 -7.36566
rfemur -11.0067 16.0681 24.307
rtibia 16.4277
rfoot -15.3909 -26.8217
rtoes -2.86904
lfemur -17.3014 -13.8242 -18.4463
ltibia 25.0111
lfoot -21.4598 13.4386
ltoes -21.6092
84
root 8.8213 15.603 21.6161 -171.79 1.89671 -179.027
lowerback 15.6113 0.887037 1.55699
upperback 0.299717 1.59292 0.0682085
thorax -8.4134 0.76055 -1.17643
lowerneck -6.5254 -2.57271 -7.11859
upperneck -5.82839 -3.23532 7.80511
head -0.461854 -1.69187 3.74978
rclavicle 1.30949e-014 5.96354e-015
rhumerus -50.1019 31.7503 -32.5688
rradius 34.2226
rwrist 27.2521
rhand 2.90365 -55.2371
rfingers 7.12502
rthumb 28.3685 -83.1077
lclavicle 1.30949e-014 5.96354e-015
lhumerus -44.6202 -12.2046 11.4503
lradius 36.1711
lwrist -5.42327
lhand 8.28614 -33.6331
lfingers 7.12502
lthumb 33.499 -6.73958
rfemur -11.3239 15.9683 24.1803
rtibia 16.4241
rfoot -15.2416 -26.8058
rtoes -2.47924
lfemur -17.9022 -13.555 -18.439
ltibia 25.4422
lfoot -21.7205 12.835
ltoes -20.657
